<svg
  width="404pt" height="116pt"
  viewBox="0.00 0.00 404.00 116.00"
  xmlns="http://www.w3.org/2000/svg"
  xmlns:xlink="http://www.w3.org/1999/xlink">
<g id="graph1" class="graph" transform="scale(1 1) rotate(0) translate(4 112)">
<title>G</title>
<polygon fill="white" stroke="white" points="-4,5 -4,-112 401,-112 401,5 -4,5"></polygon>
<!-- section -->
<g id="node1" class="node"><title>section</title>
<ellipse fill="none" stroke="black" cx="198" cy="-90" rx="38.0856" ry="18"></ellipse>
<text text-anchor="middle" x="198" y="-85.8" font-family="Times,serif" font-size="14.00">section</text>
</g>
<!-- p1 -->
<g id="node2" class="node"><title>p1</title>
<ellipse fill="none" stroke="black" cx="27" cy="-18" rx="27" ry="18"></ellipse>
<text text-anchor="middle" x="27" y="-13.8" font-family="Times,serif" font-size="14.00">p</text>
</g>
<!-- section&#45;&gt;p1 -->
<g id="edge3" class="edge"><title>section-&gt;p1</title>
<path fill="none" stroke="black" d="M168.802,-78.185C141.303,-67.8466 99.0606,-51.5721 63,-36 61.1915,-35.2191 59.3396,-34.4013 57.4762,-33.5646"></path>
<polygon fill="black" stroke="black" points="58.7606,-30.303 48.2128,-29.306 55.8367,-36.6631 58.7606,-30.303"></polygon>
</g>
<!-- p2 -->
<g id="node3" class="node"><title>p2</title>
<ellipse fill="none" stroke="black" cx="99" cy="-18" rx="27" ry="18"></ellipse>
<text text-anchor="middle" x="99" y="-13.8" font-family="Times,serif" font-size="14.00">p</text>
</g>
<!-- section&#45;&gt;p2 -->
<g id="edge4" class="edge"><title>section-&gt;p2</title>
<path fill="none" stroke="black" d="M177.487,-74.496C162.387,-63.8188 141.729,-49.2124 125.397,-37.6645"></path>
<polygon fill="black" stroke="black" points="127.017,-34.5236 116.831,-31.6081 122.976,-40.2392 127.017,-34.5236"></polygon>
</g>
<!-- blockquote -->
<g id="node4" class="node"><title>blockquote</title>
<ellipse fill="none" stroke="black" cx="198" cy="-18" rx="53.4227" ry="18"></ellipse>
<text text-anchor="middle" x="198" y="-13.8" font-family="Times,serif" font-size="14.00">blockquote</text>
</g>
<!-- section&#45;&gt;blockquote -->
<g id="edge5" class="edge"><title>section-&gt;blockquote</title>
<path fill="none" stroke="black" d="M198,-71.6966C198,-63.9827 198,-54.7125 198,-46.1124"></path>
<polygon fill="black" stroke="black" points="201.5,-46.1043 198,-36.1043 194.5,-46.1044 201.5,-46.1043"></polygon>
</g>
<!-- p3 -->
<g id="node5" class="node"><title>p3</title>
<ellipse fill="none" stroke="black" cx="297" cy="-18" rx="27" ry="18"></ellipse>
<text text-anchor="middle" x="297" y="-13.8" font-family="Times,serif" font-size="14.00">p</text>
</g>
<!-- section&#45;&gt;p3 -->
<g id="edge6" class="edge"><title>section-&gt;p3</title>
<path fill="none" stroke="black" d="M218.513,-74.496C233.613,-63.8188 254.271,-49.2124 270.603,-37.6645"></path>
<polygon fill="black" stroke="black" points="273.024,-40.2392 279.169,-31.6081 268.983,-34.5236 273.024,-40.2392"></polygon>
</g>
<!-- p4 -->
<g id="node6" class="node"><title>p4</title>
<ellipse fill="none" stroke="black" cx="369" cy="-18" rx="27" ry="18"></ellipse>
<text text-anchor="middle" x="369" y="-13.8" font-family="Times,serif" font-size="14.00">p</text>
</g>
<!-- section&#45;&gt;p4 -->
<g id="edge7" class="edge"><title>section-&gt;p4</title>
<path fill="none" stroke="black" d="M227.198,-78.185C254.697,-67.8466 296.939,-51.5721 333,-36 334.808,-35.2191 336.66,-34.4013 338.524,-33.5646"></path>
<polygon fill="black" stroke="black" points="340.163,-36.6631 347.787,-29.306 337.239,-30.303 340.163,-36.6631"></polygon>
</g>
</g>
</svg>
