<svg width="422pt" height="116pt" viewBox="0.00 0.00 422.00 116.00" xmlns="http://www.w3.org/2000/svg" xmlns:xlink="http://www.w3.org/1999/xlink">
<g id="graph1" class="graph" transform="scale(1 1) rotate(0) translate(4 112)">
<title>G</title>
<polygon fill="white" stroke="white" points="-4,5 -4,-112 419,-112 419,5 -4,5"></polygon>
<!-- table -->
<g id="node1" class="node"><title>table</title>
<ellipse fill="none" stroke="black" cx="207" cy="-90" rx="29.2125" ry="18"></ellipse>
<text text-anchor="middle" x="207" y="-85.8" font-family="Times,serif" font-size="14.00">table</text>
</g>
<!-- tr1 -->
<g id="node2" class="node"><title>tr1</title>
<ellipse fill="none" stroke="black" cx="27" cy="-18" rx="27" ry="18"></ellipse>
<text text-anchor="middle" x="27" y="-13.8" font-family="Times,serif" font-size="14.00">tr</text>
</g>
<!-- table&#45;&gt;tr1 -->
<g id="edge3" class="edge"><title>table-&gt;tr1</title>
<path fill="none" stroke="black" d="M181.765,-80.4726C152.808,-70.5125 104.029,-53.1983 63,-36 61.1833,-35.2385 59.3249,-34.4358 57.4566,-33.6106"></path>
<polygon fill="black" stroke="black" points="58.7311,-30.3452 48.1801,-29.3829 55.8281,-36.7149 58.7311,-30.3452"></polygon>
</g>
<!-- tr2 -->
<g id="node3" class="node"><title>tr2</title>
<ellipse fill="none" stroke="black" cx="99" cy="-18" rx="27" ry="18"></ellipse>
<text text-anchor="middle" x="99" y="-13.8" font-family="Times,serif" font-size="14.00">tr</text>
</g>
<!-- table&#45;&gt;tr2 -->
<g id="edge4" class="edge"><title>table-&gt;tr2</title>
<path fill="none" stroke="black" d="M187.442,-76.3235C170.335,-65.2356 145.313,-49.0176 126.246,-36.6593"></path>
<polygon fill="black" stroke="black" points="127.985,-33.6157 117.69,-31.1138 124.178,-39.4898 127.985,-33.6157"></polygon>
</g>
<!-- tr3 -->
<g id="node4" class="node"><title>tr3</title>
<ellipse fill="none" stroke="black" cx="171" cy="-18" rx="27" ry="18"></ellipse>
<text text-anchor="middle" x="171" y="-13.8" font-family="Times,serif" font-size="14.00">tr</text>
</g>
<!-- table&#45;&gt;tr3 -->
<g id="edge5" class="edge"><title>table-&gt;tr3</title>
<path fill="none" stroke="black" d="M198.469,-72.411C194.164,-64.0421 188.851,-53.7098 184.047,-44.3698"></path>
<polygon fill="black" stroke="black" points="187.156,-42.7621 179.47,-35.4699 180.931,-45.9636 187.156,-42.7621"></polygon>
</g>
<!-- tr4 -->
<g id="node5" class="node"><title>tr4</title>
<ellipse fill="none" stroke="black" cx="243" cy="-18" rx="27" ry="18"></ellipse>
<text text-anchor="middle" x="243" y="-13.8" font-family="Times,serif" font-size="14.00">tr</text>
</g>
<!-- table&#45;&gt;tr4 -->
<g id="edge6" class="edge"><title>table-&gt;tr4</title>
<path fill="none" stroke="black" d="M215.531,-72.411C219.836,-64.0421 225.149,-53.7098 229.953,-44.3698"></path>
<polygon fill="black" stroke="black" points="233.069,-45.9636 234.53,-35.4699 226.844,-42.7621 233.069,-45.9636"></polygon>
</g>
<!-- tr5 -->
<g id="node6" class="node"><title>tr5</title>
<ellipse fill="none" stroke="black" cx="315" cy="-18" rx="27" ry="18"></ellipse>
<text text-anchor="middle" x="315" y="-13.8" font-family="Times,serif" font-size="14.00">tr</text>
</g>
<!-- table&#45;&gt;tr5 -->
<g id="edge7" class="edge"><title>table-&gt;tr5</title>
<path fill="none" stroke="black" d="M226.558,-76.3235C243.665,-65.2356 268.687,-49.0176 287.754,-36.6593"></path>
<polygon fill="black" stroke="black" points="289.822,-39.4898 296.31,-31.1138 286.015,-33.6157 289.822,-39.4898"></polygon>
</g>
<!-- tr6 -->
<g id="node7" class="node"><title>tr6</title>
<ellipse fill="none" stroke="black" cx="387" cy="-18" rx="27" ry="18"></ellipse>
<text text-anchor="middle" x="387" y="-13.8" font-family="Times,serif" font-size="14.00">tr</text>
</g>
<!-- table&#45;&gt;tr6 -->
<g id="edge8" class="edge"><title>table-&gt;tr6</title>
<path fill="none" stroke="black" d="M232.235,-80.4726C261.192,-70.5125 309.971,-53.1983 351,-36 352.817,-35.2385 354.675,-34.4358 356.543,-33.6106"></path>
<polygon fill="black" stroke="black" points="358.172,-36.7149 365.82,-29.3829 355.269,-30.3452 358.172,-36.7149"></polygon>
</g>
</g>
</svg>
